# xmcd
#
# Track frame offsets: 
#        150
#        16996
#        34961
#        55953
#        79244
#        96874
#        122101
#        144913
#        167892
#        186860
#        204198
#        227959
#        250960
#        265031
#        287253
#        307456
#
# Disc length: 4452 seconds
#
# Revision: 0
# Processed by: cddbd v1.5.2PL0 Copyright (c) Steve Scherf et al.
# Submitted via: ExactAudioCopy v0.95b4
#
DISCID=e3116210
DTITLE=Mandrill - New Worlds and Gettin' In The Mood
DYEAR=2009
DGENRE=Funk
TTITLE0=Too Late
TTITLE1=Mean Streets
TTITLE2=Having A Love Attack
TTITLE3=Don't Stop
TTITLE4=Thiird World Girl
TTITLE5=Stay Tonite
TTITLE6=When You Smile
TTITLE7=It's So Easy Lovin' You
TTITLE8=When You Shake
TTITLE9=My Kind Of Girl (My Girl)
TTITLE10=Getting In The Mood
TTITLE11=Dance Of Love
TTITLE12=Feeling Good
TTITLE13=Love Made Me Over
TTITLE14=Lo Siento Mucho (I'm Very Sorry)
TTITLE15=Coming Home
EXTD=
EXTT0=
EXTT1=
EXTT2=
EXTT3=
EXTT4=
EXTT5=
EXTT6=
EXTT7=
EXTT8=
EXTT9=
EXTT10=
EXTT11=
EXTT12=
EXTT13=
EXTT14=
EXTT15=
PLAYORDER=
